# xmcd
# 
# Track frame offsets:
#     150
#     12887
#     26635
#     43500
#     52237
#     62117
#     76920
#     90377
#     98737
#     108475
#     121012
#     129052
#     140810
#     152480
#     162382
#     177005
#     186790
#     196545
#     207330
#     217807
# 
# Disc length: 3087
# 
# Revision: 7
# Processed by: cddbd v1.5.2PL0 Copyright (c) Steve Scherf et al.
# Submitted via: fre:ac v1.0.31
# 
DISCID=fe0c0d14
DTITLE=Willie Nelson - Always: 20 Superb Songs
DYEAR=1996
DGENRE=Country
TTITLE0=I Just Don't Understand†
TTITLE1=Home Is Where You're Happy
TTITLE2=I Let My Mind Wander
TTITLE3=Why Are You Picking on Me
TTITLE4=Broken Promises
TTITLE5=And So Will You My Love
TTITLE6=Undo the Right
TTITLE7=Slow Down Old World
TTITLE8=Ashamed
TTITLE9=Any Old Arms Won't Do
TTITLE10=Things to Remember
TTITLE11=End of Understanding
TTITLE12=Touch Me
TTITLE13=Healing Hands of Time
TTITLE14=Face of a Fighter
TTITLE15=I Didn't Sleep a Wink
TTITLE16=Half a Man
TTITLE17=Suffering in Silence
TTITLE18=I Feel Sorry for Him
TTITLE19=Last Letter
EXTD=CDDBSort:nelson_willie,always_20_superb_songs - YEAR: 1996
EXTT0=On cover as 'If I Don't Understand'
EXTT1=
EXTT2=
EXTT3=
EXTT4=
EXTT5=
EXTT6=
EXTT7=
EXTT8=
EXTT9=
EXTT10=
EXTT11=
EXTT12=
EXTT13=
EXTT14=
EXTT15=
EXTT16=
EXTT17=
EXTT18=
EXTT19=
PLAYORDER=
